<svg width="64" height="64" viewBox="0 0 64 64" fill="none" xmlns="http://www.w3.org/2000/svg">
    <g>
        <path d="M0 0H64V64H0V0Z" fill="#44475A"/>
        <path d="M55.069 35.428C55.278 36.5613 55.278 37.7187 55.069 38.852L57.1427 40.0496C57.3757 40.1862 57.4883 40.4675 57.4079 40.7328C56.8694 42.4689 55.9451 44.0442 54.7394 45.3463C54.5546 45.5472 54.2492 45.5954 54.0161 45.4588L51.9424 44.2612C51.0663 45.0087 50.0616 45.5874 48.9766 45.9732V48.3684C48.9766 48.6417 48.7837 48.8828 48.5184 48.939C46.8145 49.3249 44.9899 49.3409 43.1976 48.939C42.9323 48.8828 42.7394 48.6417 42.7394 48.3684V45.9732C41.6544 45.5874 40.6497 45.0087 39.7736 44.2612L37.6999 45.4588C37.4588 45.5954 37.1614 45.5472 36.9766 45.3463C35.7709 44.0362 34.8466 42.4689 34.3081 40.7328C34.2277 40.4675 34.3322 40.1862 34.5733 40.0496L36.647 38.852C36.438 37.7187 36.438 36.5613 36.647 35.428L34.5733 34.2304C34.3402 34.0938 34.2277 33.8125 34.3081 33.5472C34.8466 31.8111 35.7709 30.2358 36.9766 28.9337C37.1614 28.7328 37.4668 28.6845 37.6999 28.8212L39.7736 30.0188C40.6497 29.2713 41.6544 28.6926 42.7394 28.3068V25.9116C42.7394 25.6383 42.9323 25.3972 43.1976 25.3409C44.9015 24.9551 46.726 24.939 48.5184 25.3409C48.7837 25.3972 48.9766 25.6383 48.9766 25.9116V28.3068C50.0616 28.6926 51.0663 29.2713 51.9424 30.0188L54.0161 28.8212C54.2572 28.6845 54.5546 28.7328 54.7394 28.9337C55.9451 30.2358 56.8694 31.8111 57.4079 33.5472C57.4883 33.8125 57.3838 34.0938 57.1427 34.2304L55.069 35.428Z" fill="#6272A4"/>
        <path d="M55.069 38.852C55.278 37.7187 55.278 36.5613 55.069 35.428L57.1427 34.2304C57.3838 34.0938 57.4883 33.8125 57.4079 33.5472C56.8694 31.8111 55.9451 30.2358 54.7395 28.9337C54.5546 28.7328 54.2572 28.6845 54.0161 28.8212L51.9424 30.0188C51.0663 29.2713 50.0616 28.6926 48.9766 28.3068V25.9116C48.9766 25.6383 48.7837 25.3972 48.5184 25.3409C46.7261 24.939 44.9015 24.9551 43.1976 25.3409C42.9324 25.3972 42.7395 25.6383 42.7395 25.9116V28.3068C41.6544 28.6926 40.6497 29.2713 39.7736 30.0188L37.6999 28.8212C37.4668 28.6845 37.1614 28.7328 36.9766 28.9337C35.7709 30.2358 34.8466 31.8111 34.3081 33.5472C34.2277 33.8125 34.3403 34.0938 34.5733 34.2304L36.647 35.428C36.438 36.5613 36.438 37.7187 36.647 38.852L34.5733 40.0496C34.3322 40.1862 34.2277 40.4675 34.3081 40.7328C34.8466 42.4689 35.7709 44.0362 36.9766 45.3463C37.1614 45.5472 37.4588 45.5954 37.6999 45.4588L39.7736 44.2612C40.6497 45.0087 41.6544 45.5874 42.7395 45.9732V48.3684C42.7395 48.6417 42.9324 48.8828 43.1976 48.939C44.99 49.3409 46.8145 49.3248 48.5184 48.939C48.7837 48.8828 48.9766 48.6417 48.9766 48.3684V45.9732C50.0616 45.5874 51.0663 45.0087 51.9424 44.2612L54.0161 45.4588C54.2492 45.5954 54.5546 45.5472 54.7395 45.3463C55.9451 44.0442 56.8694 42.4689 57.4079 40.7328C57.4883 40.4675 57.3758 40.1862 57.1427 40.0496L55.069 38.852ZM45.866 41.0382C43.712 41.0382 41.9679 39.286 41.9679 37.14C41.9679 34.994 43.72 33.2418 45.866 33.2418C48.0121 33.2418 49.7642 34.994 49.7642 37.14C49.7642 39.286 48.0201 41.0382 45.866 41.0382ZM13.716 29.424C16.5532 29.424 18.86 27.1172 18.86 24.28C18.86 21.4427 16.5532 19.136 13.716 19.136C10.8788 19.136 8.572 21.4427 8.572 24.28C8.572 27.1172 10.8788 29.424 13.716 29.424ZM31.72 31.996C31.8727 31.996 32.0174 31.9558 32.1701 31.9478C32.8372 30.2036 33.8178 28.564 35.0877 27.1896C35.6825 26.5466 36.5265 26.1768 37.4106 26.1768C37.9652 26.1768 38.5117 26.3215 38.9859 26.6028L39.6209 26.9725C39.6852 26.9324 39.7495 26.9002 39.8138 26.86C40.3764 25.6865 40.714 24.3845 40.714 23.002C40.714 18.0268 36.6872 14 31.712 14C26.7368 14 22.718 18.0188 22.718 22.994C22.718 27.9692 26.7448 31.996 31.72 31.996ZM40.1755 47.6289C39.9906 47.5325 39.8058 47.42 39.6289 47.3155C38.9699 47.7013 38.3992 48.1031 37.4186 48.1031C36.5425 48.1031 35.6986 47.7334 35.0958 47.0904C33.6249 45.499 32.4997 43.562 31.8647 41.4963C31.0047 38.7234 33.866 37.5017 33.9384 37.4534C33.9303 37.2445 33.9303 37.0355 33.9384 36.8265L33.3034 36.4568C32.998 36.28 32.7408 36.0549 32.5157 35.8058C32.2505 35.8218 31.9933 35.854 31.7281 35.854C29.7508 35.854 27.9022 35.3717 26.2224 34.568H25.5553C20.4354 34.568 16.288 38.7153 16.288 43.8272V46.142C16.288 48.2719 18.0161 50 20.146 50H40.6738C40.3764 49.5177 40.1755 48.9712 40.1755 48.3684V47.6289ZM19.9129 33.491C18.9806 32.5666 17.7026 31.996 16.288 31.996H11.144C8.30677 31.996 6 34.3027 6 37.14V39.712C6 41.1346 7.14936 42.284 8.572 42.284H13.8687C14.3751 38.4742 16.6738 35.2672 19.9129 33.491Z" fill="#F8F8F2"/>
    </g>
</svg>
