<svg width="16" height="16" viewBox="0 0 16 16" fill="none" xmlns="http://www.w3.org/2000/svg">
    <path d="M2 0V16H14V4L10 0H2Z" fill="#5599FF"/>
    <path opacity="0.65" d="M10 4V0L14 4H10Z" fill="white"/>
    <path opacity="0.15" d="M14 4V9L10 4H14Z" fill="#212121"/>
    <path d="M8 8.86473C7.38125 8.86473 6.875 8.68438 6.48125 8.32367C6.0875 7.96296 5.89062 7.4992 5.89062 6.93237C5.89062 6.36554 6.0875 5.90177 6.48125 5.54106C6.875 5.18035 7.38125 5 8 5C8.61875 5 9.125 5.18035 9.51875 5.54106C9.9125 5.90177 10.1094 6.36554 10.1094 6.93237C10.1094 7.4992 9.9125 7.96296 9.51875 8.32367C9.125 8.68438 8.61875 8.86473 8 8.86473V8.86473ZM3.5 13V11.789C3.5 11.4627 3.58906 11.1836 3.76719 10.9517C3.94531 10.7198 4.175 10.5437 4.45625 10.4235C5.08437 10.1659 5.68672 9.97262 6.26328 9.8438C6.83984 9.71498 7.41875 9.65056 8 9.65056C8.58125 9.65056 9.15781 9.71712 9.72969 9.85024C10.3016 9.98336 10.9016 10.1744 11.5297 10.4235C11.8203 10.5437 12.0547 10.7198 12.2328 10.9517C12.4109 11.1836 12.5 11.4627 12.5 11.789V13H3.5Z" fill="white"/>
</svg>
