<svg width="16" height="16" viewBox="0 0 16 16" fill="none" xmlns="http://www.w3.org/2000/svg">
    <path d="M7.99996 7.98334C7.26663 7.98334 6.66663 7.75 6.19996 7.28334C5.73329 6.81667 5.49996 6.21667 5.49996 5.48334C5.49996 4.75 5.73329 4.15 6.19996 3.68334C6.66663 3.21667 7.26663 2.98334 7.99996 2.98334C8.73329 2.98334 9.33329 3.21667 9.79996 3.68334C10.2666 4.15 10.5 4.75 10.5 5.48334C10.5 6.21667 10.2666 6.81667 9.79996 7.28334C9.33329 7.75 8.73329 7.98334 7.99996 7.98334ZM2.66663 13.3333V11.7667C2.66663 11.3444 2.77218 10.9833 2.98329 10.6833C3.1944 10.3833 3.46663 10.1556 3.79996 10C4.5444 9.66667 5.25829 9.41667 5.94163 9.25C6.62496 9.08334 7.31107 9 7.99996 9C8.68885 9 9.37218 9.08611 10.05 9.25834C10.7277 9.43056 11.4388 9.67778 12.1833 10C12.5277 10.1556 12.8055 10.3833 13.0166 10.6833C13.2277 10.9833 13.3333 11.3444 13.3333 11.7667V13.3333H2.66663Z" fill="#5599FF"/>
</svg>
